<svg xmlns="http://www.w3.org/2000/svg" width="280.424" height="39.212" viewBox="0 0 280.424 39.212"><g transform="translate(-67.8 -39.641)"><path d="M67.8,40.481h9.749V78.393H67.8Z" transform="translate(0 -0.19)"/><path d="M90.066,40.481h9.153l12.619,19.064V40.481h9.586V78.393h-8.665L99.652,58.516V78.393H90.066Z" transform="translate(-5.047 -0.19)"/><path d="M138.523,40.481h9.153L160.3,59.545V40.481h9.586V78.393h-8.665L148.109,58.516V78.393h-9.586Z" transform="translate(-16.03 -0.19)"/><path d="M237.21,40.482h9.911L237.86,78.393h-9.966Z" transform="translate(-36.287 -0.191)"/><path d="M254.154,63.038c0-6.283,2.274-13.216,6.877-17.819a18.449,18.449,0,0,1,13.595-5.578,14.755,14.755,0,0,1,13.106,7.312l-7.69,5.9c-1.624-2.491-3.3-4.062-6.066-4.062a7.4,7.4,0,0,0-5.416,2.491c-2.6,2.546-4.116,7.1-4.116,11.049,0,4.6,2.491,7.365,6.012,7.365,2.274,0,4.223-1.029,6.39-2.979l5.525,6.77a17.168,17.168,0,0,1-12.565,5.362C260.436,78.853,254.154,72.786,254.154,63.038Z" transform="translate(-42.239 0)"/><path d="M310.525,49.364H301.21l2.274-8.882h28.542l-2.274,8.882H320.49L313.45,78.393h-9.966Z" transform="translate(-52.904 -0.191)"/><path d="M346.03,63.321V40.412h9.8V63.429c0,4.55,2.22,6.716,5.578,6.716,3.413,0,5.579-2.058,5.579-6.553V40.412h9.857V63.159c0,10.994-6.229,15.814-15.489,15.814S346.03,74.1,346.03,63.321Z" transform="translate(-63.063 -0.175)"/><path d="M392.6,73.127l5.2-7.095c3.087,2.546,6.608,4.279,10.291,4.279,2.6,0,3.953-1.138,3.953-2.762v-.054c0-1.517-1.138-2.438-5.579-4.007-7.148-2.438-12.186-5.037-12.186-11.916v-.162c0-6.878,5.253-11.7,13.54-11.7a20.736,20.736,0,0,1,13.54,4.6l-4.928,7.257a15.052,15.052,0,0,0-8.828-3.466c-2.22,0-3.466,1.083-3.466,2.492v.054c0,1.679,1.192,2.545,6.011,4.333,7.2,2.329,11.7,5.253,11.7,11.7v.108c0,7.366-5.687,11.915-13.811,11.915A23.082,23.082,0,0,1,392.6,73.127Z" transform="translate(-73.617 -0.016)"/><path d="M212.3,40.482,200.762,62.587V40.482H191.8l.025,38.128h9.424l21.988-38.128Z" transform="translate(-28.106 -0.191)"/></g></svg>